<?xml version="1.0" encoding="UTF-8"?>
<svg version="1.1" xmlns="http://www.w3.org/2000/svg" width="915" height="320">
<path d="M0 0 C0.52207031 0.46277344 1.04414063 0.92554688 1.58203125 1.40234375 C1.58203125 2.06234375 1.58203125 2.72234375 1.58203125 3.40234375 C2.57203125 3.73234375 3.56203125 4.06234375 4.58203125 4.40234375 C9.9693362 11.42022765 11.75155292 19.71050517 11.58203125 28.40234375 C10.36515625 28.36109375 9.14828125 28.31984375 7.89453125 28.27734375 C4.36308998 28.26479867 1.78199559 28.80236158 -1.41796875 30.40234375 C-2.60644076 28.02539973 -2.5193814 26.42555473 -2.60546875 23.77734375 C-3.15240534 18.1283867 -5.01186586 14.05813202 -9.41796875 10.40234375 C-15.8224539 6.61783703 -21.51345784 5.79834606 -28.85546875 5.96484375 C-29.73267578 5.95775391 -30.60988281 5.95066406 -31.51367188 5.94335938 C-38.45532169 6.00986007 -46.35545878 6.38850076 -51.52177429 11.47271729 C-53.90542487 15.15546501 -53.99275693 18.1588991 -53.96386719 22.40551758 C-53.9793737 23.5916716 -53.9793737 23.5916716 -53.99519348 24.80178833 C-54.02459162 27.40452581 -54.02611998 30.00648463 -54.02734375 32.609375 C-54.04232746 34.4182839 -54.05905501 36.22717913 -54.07745361 38.03605652 C-54.12111807 42.78877393 -54.1411242 47.5413068 -54.15618896 52.29418945 C-54.17576331 57.14740914 -54.21773297 62.00042962 -54.2578125 66.85351562 C-54.3331048 76.36973021 -54.38340222 85.88590018 -54.41796875 95.40234375 C-51.11796875 95.40234375 -47.81796875 95.40234375 -44.41796875 95.40234375 C-43.06119482 98.11589161 -43.22724658 100.68935438 -43.12792969 103.67407227 C-42.57057991 120.34171344 -39.62064129 136.52046605 -27.16796875 148.65234375 C-26.26046875 149.55984375 -25.35296875 150.46734375 -24.41796875 151.40234375 C-24.41796875 152.06234375 -24.41796875 152.72234375 -24.41796875 153.40234375 C-23.09796875 154.06234375 -21.77796875 154.72234375 -20.41796875 155.40234375 C-20.41796875 156.39234375 -20.41796875 157.38234375 -20.41796875 158.40234375 C-25.69796875 158.40234375 -30.97796875 158.40234375 -36.41796875 158.40234375 C-36.41796875 167.31234375 -36.41796875 176.22234375 -36.41796875 185.40234375 C-32.50682301 186.1845729 -29.96444571 186.48373727 -26.1171875 186.28125 C-25.23635498 186.23814697 -24.35552246 186.19504395 -23.44799805 186.15063477 C-22.34496338 186.08932373 -21.24192871 186.0280127 -20.10546875 185.96484375 C-16.57859375 185.77921875 -13.05171875 185.59359375 -9.41796875 185.40234375 C-9.08796875 177.48234375 -8.75796875 169.56234375 -8.41796875 161.40234375 C1.58203125 162.40234375 1.58203125 162.40234375 4.58203125 163.40234375 C4.58203125 170.99234375 4.58203125 178.58234375 4.58203125 186.40234375 C13.16203125 186.07234375 21.74203125 185.74234375 30.58203125 185.40234375 C30.48921875 183.45070312 30.39640625 181.4990625 30.30078125 179.48828125 C30.22573742 176.91802998 30.15293797 174.34771248 30.08203125 171.77734375 C30.015 170.49214844 29.94796875 169.20695313 29.87890625 167.8828125 C29.68440791 158.49826755 29.68440791 158.49826755 32.328125 155.27050781 C34.48828125 153.69140625 34.48828125 153.69140625 36.65429688 152.50244141 C38.8987543 151.41229572 38.8987543 151.41229572 40.58203125 148.40234375 C41.24203125 148.40234375 41.90203125 148.40234375 42.58203125 148.40234375 C42.82953125 147.72171875 43.07703125 147.04109375 43.33203125 146.33984375 C44.51625974 143.5569068 45.9132895 141.02383829 47.484375 138.44140625 C50.7306231 132.41100943 52.24793792 126.95157501 53.20703125 120.21484375 C53.33182861 119.3849292 53.45662598 118.55501465 53.58520508 117.69995117 C54.5227285 111.28783839 55.20745981 104.87338826 55.58203125 98.40234375 C60.26171875 98.20703125 60.26171875 98.20703125 63.14453125 99.96484375 C69.03018873 105.85050123 70.04217036 110.50625003 70.12414551 118.63587952 C70.11604858 119.84336349 70.10795166 121.05084747 70.09960938 122.29492188 C70.10661865 123.5819249 70.11362793 124.86892792 70.12084961 126.19493103 C70.13901424 129.709492 70.1320443 133.2235809 70.11933327 136.73814964 C70.10916974 140.42509561 70.11860822 144.11200255 70.12487793 147.7989502 C70.13214463 153.98924986 70.12259246 160.17935831 70.10351562 166.36962891 C70.08174858 173.51513191 70.08880066 180.66017831 70.11082125 187.80567026 C70.12900328 193.95283098 70.13151994 200.09985466 70.12106657 206.2470336 C70.11484696 209.91314262 70.11395347 213.57903739 70.12721252 217.24513245 C70.14096772 221.33361628 70.12187588 225.42131933 70.09960938 229.50976562 C70.1077063 230.7172496 70.11580322 231.92473358 70.12414551 233.16880798 C70.04320537 241.19579346 69.0195356 245.76841058 63.39453125 251.71484375 C57.05782108 255.51686985 49.69933862 255.6967866 42.47399902 255.65631104 C41.16729445 255.66099101 41.16729445 255.66099101 39.8341918 255.66576552 C36.93952085 255.67368953 34.04506282 255.66744385 31.15039062 255.66113281 C29.06516905 255.66384516 26.97994843 255.66740746 24.89472961 255.67175293 C19.24812013 255.68085015 13.60158394 255.67734366 7.95497322 255.67099476 C2.03748506 255.66592097 -3.87999694 255.67063005 -9.79748535 255.67376709 C-19.73365401 255.67740271 -29.6697929 255.67261822 -39.60595703 255.66308594 C-51.08318228 255.65220218 -62.56033646 255.65572805 -74.03755999 255.66673875 C-83.90277479 255.67582312 -93.76796823 255.67709127 -103.63318586 255.67186141 C-109.5203871 255.66874805 -115.40755496 255.66831498 -121.29475403 255.67493439 C-126.83024728 255.68072392 -132.36564917 255.67668148 -137.90113258 255.66514587 C-139.92918051 255.6625079 -141.95723617 255.66324961 -143.98528099 255.6676712 C-146.76026898 255.67316217 -149.53496686 255.66624961 -152.30993652 255.65631104 C-153.10635386 255.66077248 -153.9027712 255.66523392 -154.72332239 255.66983056 C-161.83272831 255.62067575 -169.41940938 255.1702447 -174.85546875 250.15234375 C-175.49355469 249.5903125 -176.13164062 249.02828125 -176.7890625 248.44921875 C-181.51589467 242.50950638 -180.71402129 235.1229403 -180.70849609 227.93041992 C-180.71521332 226.67603622 -180.72193054 225.42165253 -180.72885132 224.1292572 C-180.7445666 220.69929121 -180.75120474 217.26956742 -180.75248289 213.8395822 C-180.75390779 211.69299971 -180.75818379 209.54644234 -180.76347733 207.3998661 C-180.78196287 199.9005943 -180.79014987 192.40139344 -180.78857422 184.90209961 C-180.7873735 177.92879903 -180.80846576 170.9558083 -180.84006155 163.98258609 C-180.86627653 157.98151014 -180.87693932 151.98053508 -180.8756634 145.97940236 C-180.87515526 142.40148816 -180.88075581 138.82384946 -180.9020195 135.24599266 C-180.925114 131.25126595 -180.91584927 127.25722657 -180.90380859 123.26245117 C-180.91504761 122.08863892 -180.92628662 120.91482666 -180.93786621 119.70544434 C-180.87638762 111.66211865 -179.689288 105.15473936 -174.29296875 98.96484375 C-167.40191689 95.21970687 -159.3407705 95.10972665 -151.65380859 95.17529297 C-150.7355127 95.17500092 -149.8172168 95.17470886 -148.87109375 95.17440796 C-145.87359754 95.17578737 -142.87635836 95.19128239 -139.87890625 95.20703125 C-137.78569677 95.21076633 -135.69248554 95.21361096 -133.59927368 95.21560669 C-128.11829715 95.22320419 -122.6374284 95.24281896 -117.15649414 95.26501465 C-111.55226092 95.28555713 -105.9480101 95.2946263 -100.34375 95.3046875 C-89.36844251 95.32606882 -78.39321463 95.36015739 -67.41796875 95.40234375 C-67.4268512 94.40755508 -67.43573364 93.41276642 -67.44488525 92.38783264 C-67.52617034 82.9870845 -67.58602949 73.58640819 -67.62521744 64.18538761 C-67.64604211 59.35285289 -67.67426566 54.52060316 -67.71972656 49.68823242 C-67.76336766 45.01978717 -67.78714433 40.35161508 -67.79747772 35.68298149 C-67.80483643 33.90687196 -67.81920603 32.13077643 -67.84088898 30.35478401 C-67.9794878 18.52604553 -67.5451179 8.94362699 -59.08984375 -0.09765625 C-44.81525673 -12.90476236 -14.73203315 -10.13956047 0 0 Z M-159.41796875 119.40234375 C-159.71232008 121.79474933 -159.71232008 121.79474933 -159.6484375 124.55859375 C-159.64650391 125.58082031 -159.64457031 126.60304687 -159.64257812 127.65625 C-159.63033203 128.72746094 -159.61808594 129.79867187 -159.60546875 130.90234375 C-159.60482422 131.97355469 -159.60417969 133.04476562 -159.60351562 134.1484375 C-159.81211899 139.44350858 -159.81211899 139.44350858 -158.41796875 144.40234375 C-154.10548266 144.43120912 -149.79302113 144.4490963 -145.48046875 144.46484375 C-143.63291992 144.47741211 -143.63291992 144.47741211 -141.74804688 144.49023438 C-140.57822266 144.49345703 -139.40839844 144.49667969 -138.203125 144.5 C-137.119104 144.50523682 -136.03508301 144.51047363 -134.91821289 144.51586914 C-132.47746927 144.68661272 -132.47746927 144.68661272 -131.41796875 143.40234375 C-131.3305923 141.54864764 -131.31098722 139.69166834 -131.3203125 137.8359375 C-131.32514648 136.14887695 -131.32514648 136.14887695 -131.33007812 134.42773438 C-131.33845703 133.24373047 -131.34683594 132.05972656 -131.35546875 130.83984375 C-131.35998047 129.65197266 -131.36449219 128.46410156 -131.36914062 127.24023438 C-131.380972 124.29422149 -131.39745588 121.34830694 -131.41796875 118.40234375 C-135.53659166 116.3430323 -140.8915592 117.21745113 -145.41796875 117.21484375 C-146.536875 117.20259766 -147.65578125 117.19035156 -148.80859375 117.17773438 C-149.8759375 117.17580078 -150.94328125 117.17386719 -152.04296875 117.171875 C-153.02523437 117.16776611 -154.0075 117.16365723 -155.01953125 117.15942383 C-157.60286919 117.16574114 -157.60286919 117.16574114 -159.41796875 119.40234375 Z M-118.41796875 117.40234375 C-118.41796875 126.31234375 -118.41796875 135.22234375 -118.41796875 144.40234375 C-109.83796875 144.40234375 -101.25796875 144.40234375 -92.41796875 144.40234375 C-92.41796875 135.49234375 -92.41796875 126.58234375 -92.41796875 117.40234375 C-100.99796875 117.40234375 -109.57796875 117.40234375 -118.41796875 117.40234375 Z M-80.41796875 117.40234375 C-80.44683412 121.71482984 -80.4647213 126.02729137 -80.48046875 130.33984375 C-80.48884766 131.57154297 -80.49722656 132.80324219 -80.50585938 134.07226562 C-80.50908203 135.24208984 -80.51230469 136.41191406 -80.515625 137.6171875 C-80.52086182 138.7012085 -80.52609863 139.78522949 -80.53149414 140.90209961 C-80.70223772 143.34284323 -80.70223772 143.34284323 -79.41796875 144.40234375 C-77.49129368 144.48982582 -75.56145014 144.50931709 -73.6328125 144.5 C-72.46298828 144.49677734 -71.29316406 144.49355469 -70.08789062 144.49023438 C-68.85619141 144.48185547 -67.62449219 144.47347656 -66.35546875 144.46484375 C-65.11990234 144.46033203 -63.88433594 144.45582031 -62.61132812 144.45117188 C-59.54682758 144.43933983 -56.48242154 144.42285548 -53.41796875 144.40234375 C-52.11321257 141.79283139 -52.30495303 139.8753309 -52.3203125 136.95703125 C-52.32514648 135.34248047 -52.32514648 135.34248047 -52.33007812 133.6953125 C-52.33845703 132.56738281 -52.34683594 131.43945312 -52.35546875 130.27734375 C-52.35998047 129.14167969 -52.36449219 128.00601563 -52.36914062 126.8359375 C-52.3809526 124.02468737 -52.39742368 121.21354145 -52.41796875 118.40234375 C-55.13198169 117.04533728 -57.26643191 117.28995765 -60.30078125 117.3046875 C-62.05068359 117.30952148 -62.05068359 117.30952148 -63.8359375 117.31445312 C-65.05925781 117.32283203 -66.28257812 117.33121094 -67.54296875 117.33984375 C-68.77402344 117.34435547 -70.00507813 117.34886719 -71.2734375 117.35351562 C-74.32166267 117.36533045 -77.36979189 117.38180347 -80.41796875 117.40234375 Z M-158.41796875 158.40234375 C-158.51771264 160.30519362 -158.54877505 162.21172628 -158.55078125 164.1171875 C-158.55207031 165.27798828 -158.55335938 166.43878906 -158.5546875 167.63476562 C-158.55082031 168.85744141 -158.54695313 170.08011719 -158.54296875 171.33984375 C-158.54683594 172.55865234 -158.55070312 173.77746094 -158.5546875 175.03320312 C-158.55339844 176.19529297 -158.55210937 177.35738281 -158.55078125 178.5546875 C-158.54965332 179.62710693 -158.54852539 180.69952637 -158.54736328 181.80444336 C-158.59330573 184.38680815 -158.59330573 184.38680815 -157.41796875 186.40234375 C-153.27214988 186.43121126 -149.12635659 186.44909702 -144.98046875 186.46484375 C-143.79646484 186.47322266 -142.61246094 186.48160156 -141.39257812 186.49023438 C-140.26787109 186.49345703 -139.14316406 186.49667969 -137.984375 186.5 C-136.4211853 186.50785522 -136.4211853 186.50785522 -134.82641602 186.51586914 C-132.46668128 186.67539931 -132.46668128 186.67539931 -131.41796875 185.40234375 C-131.33038872 183.40269393 -131.31100299 181.39998265 -131.3203125 179.3984375 C-131.32353516 178.18349609 -131.32675781 176.96855469 -131.33007812 175.71679688 C-131.33845703 174.43740234 -131.34683594 173.15800781 -131.35546875 171.83984375 C-131.36223633 169.91495117 -131.36223633 169.91495117 -131.36914062 167.95117188 C-131.3809733 164.76818353 -131.39745807 161.58528613 -131.41796875 158.40234375 C-134.45561974 157.38979342 -136.52959096 157.27333787 -139.70703125 157.26953125 C-140.73054688 157.26824219 -141.7540625 157.26695312 -142.80859375 157.265625 C-144.40960938 157.27142578 -144.40960938 157.27142578 -146.04296875 157.27734375 C-147.11804688 157.27347656 -148.193125 157.26960937 -149.30078125 157.265625 C-150.32171875 157.26691406 -151.34265625 157.26820313 -152.39453125 157.26953125 C-153.33377441 157.27065918 -154.27301758 157.27178711 -155.24072266 157.27294922 C-157.39621221 157.1592833 -157.39621221 157.1592833 -158.41796875 158.40234375 Z M-117.41796875 159.40234375 C-117.87553102 163.55090837 -117.74199052 167.7314645 -117.73046875 171.90234375 C-117.74658203 173.06894531 -117.76269531 174.23554688 -117.77929688 175.4375 C-117.77994141 176.54996094 -117.78058594 177.66242188 -117.78125 178.80859375 C-117.78423096 179.83275391 -117.78721191 180.85691406 -117.7902832 181.91210938 C-117.66741943 182.73388672 -117.54455566 183.55566406 -117.41796875 184.40234375 C-114.06677356 186.63647388 -113.00019325 186.64082137 -109.09375 186.59765625 C-108.06572266 186.59121094 -107.03769531 186.58476562 -105.97851562 186.578125 C-104.90666016 186.56136719 -103.83480469 186.54460937 -102.73046875 186.52734375 C-101.1052832 186.51380859 -101.1052832 186.51380859 -99.44726562 186.5 C-96.77061165 186.47641715 -94.09440078 186.44350501 -91.41796875 186.40234375 C-89.72693257 180.50729729 -89.08011281 175.21076876 -89.10546875 169.08984375 C-89.08935547 168.29255859 -89.07324219 167.49527344 -89.05664062 166.67382812 C-88.95963089 162.444044 -88.95963089 162.444044 -90.61230469 158.67822266 C-93.05627312 156.95131906 -94.69492247 157.02957277 -97.671875 157.0390625 C-99.20038086 157.0400293 -99.20038086 157.0400293 -100.75976562 157.04101562 C-101.82259766 157.05712891 -102.88542969 157.07324219 -103.98046875 157.08984375 C-105.04716797 157.08662109 -106.11386719 157.08339844 -107.21289062 157.08007812 C-112.87324549 156.73517168 -112.87324549 156.73517168 -117.41796875 159.40234375 Z M-76.20996094 158.61254883 C-77.8074941 160.9794679 -77.79087882 162.52304269 -77.78125 165.3671875 C-77.78060547 166.33205078 -77.77996094 167.29691406 -77.77929688 168.29101562 C-77.76318359 169.29712891 -77.74707031 170.30324219 -77.73046875 171.33984375 C-77.73369141 172.34208984 -77.73691406 173.34433594 -77.74023438 174.37695312 C-77.70439895 179.26034447 -77.65809493 181.92209139 -75.41796875 186.40234375 C-67.16796875 186.40234375 -58.91796875 186.40234375 -50.41796875 186.40234375 C-49.15487517 183.87615659 -49.28856733 182.10587074 -49.28515625 179.28125 C-49.28386719 178.26353516 -49.28257812 177.24582031 -49.28125 176.19726562 C-49.28511719 175.13056641 -49.28898437 174.06386719 -49.29296875 172.96484375 C-49.28910156 171.90201172 -49.28523438 170.83917969 -49.28125 169.74414062 C-49.28253906 168.72513672 -49.28382813 167.70613281 -49.28515625 166.65625 C-49.28628418 165.72111572 -49.28741211 164.78598145 -49.28857422 163.82250977 C-49.31837104 161.25925753 -49.31837104 161.25925753 -50.41796875 158.40234375 C-54.2967748 156.46294072 -59.08911011 157.1739319 -63.35546875 157.15234375 C-64.37060547 157.13171875 -65.38574219 157.11109375 -66.43164062 157.08984375 C-67.8924707 157.08210937 -67.8924707 157.08210937 -69.3828125 157.07421875 C-70.72267212 157.0602002 -70.72267212 157.0602002 -72.08959961 157.04589844 C-74.44887294 157.2371651 -74.44887294 157.2371651 -76.20996094 158.61254883 Z M-158.41796875 200.40234375 C-158.51759112 202.23219997 -158.54877327 204.06587253 -158.55078125 205.8984375 C-158.55207031 207.01412109 -158.55335938 208.12980469 -158.5546875 209.27929688 C-158.55082031 210.45427734 -158.54695313 211.62925781 -158.54296875 212.83984375 C-158.54683594 214.01095703 -158.55070312 215.18207031 -158.5546875 216.38867188 C-158.55339844 217.50564453 -158.55210937 218.62261719 -158.55078125 219.7734375 C-158.54965332 220.8039624 -158.54852539 221.8344873 -158.54736328 222.89624023 C-158.58579507 225.4004405 -158.58579507 225.4004405 -157.41796875 227.40234375 C-153.10548266 227.43120912 -148.79302113 227.4490963 -144.48046875 227.46484375 C-142.63291992 227.47741211 -142.63291992 227.47741211 -140.74804688 227.49023438 C-139.57822266 227.49345703 -138.40839844 227.49667969 -137.203125 227.5 C-136.119104 227.50523682 -135.03508301 227.51047363 -133.91821289 227.51586914 C-131.47746927 227.68661272 -131.47746927 227.68661272 -130.41796875 226.40234375 C-130.31825089 224.48776093 -130.28716286 222.56952058 -130.28515625 220.65234375 C-130.28386719 219.48703125 -130.28257812 218.32171875 -130.28125 217.12109375 C-130.28705078 215.2803125 -130.28705078 215.2803125 -130.29296875 213.40234375 C-130.28910156 212.17515625 -130.28523438 210.94796875 -130.28125 209.68359375 C-130.28253906 208.51828125 -130.28382813 207.35296875 -130.28515625 206.15234375 C-130.28628418 205.0746875 -130.28741211 203.99703125 -130.28857422 202.88671875 C-130.13704504 200.46014378 -130.13704504 200.46014378 -131.41796875 199.40234375 C-133.33255157 199.30262589 -135.25079192 199.27153786 -137.16796875 199.26953125 C-138.9159375 199.26759766 -138.9159375 199.26759766 -140.69921875 199.265625 C-142.54 199.27142578 -142.54 199.27142578 -144.41796875 199.27734375 C-145.64515625 199.27347656 -146.87234375 199.26960937 -148.13671875 199.265625 C-149.30203125 199.26691406 -150.46734375 199.26820313 -151.66796875 199.26953125 C-152.745625 199.27065918 -153.82328125 199.27178711 -154.93359375 199.27294922 C-157.36016872 199.12142004 -157.36016872 199.12142004 -158.41796875 200.40234375 Z M-116.41796875 199.40234375 C-117.68697943 203.06137634 -118.68138666 205.97110271 -118.4296875 209.85546875 C-118.38263672 210.63921875 -118.33558594 211.42296875 -118.28710938 212.23046875 C-118.22716797 213.0296875 -118.16722656 213.82890625 -118.10546875 214.65234375 C-118.05712891 215.46703125 -118.00878906 216.28171875 -117.95898438 217.12109375 C-117.7647501 221.39834152 -117.7647501 221.39834152 -116.41796875 225.40234375 C-115.75796875 225.40234375 -115.09796875 225.40234375 -114.41796875 225.40234375 C-114.41796875 226.06234375 -114.41796875 226.72234375 -114.41796875 227.40234375 C-101.04030817 227.4949071 -87.66272341 227.56603939 -74.28480816 227.60959244 C-68.07330221 227.63049271 -61.86201488 227.65885526 -55.65063477 227.70410156 C-49.65951696 227.74747169 -43.66860982 227.77146246 -37.67734718 227.78185272 C-35.38831069 227.78925995 -33.0992861 227.80372396 -30.81033897 227.82526398 C-27.61117756 227.85417996 -24.4128935 227.85830463 -21.21362305 227.85644531 C-20.26128281 227.87082642 -19.30894257 227.88520752 -18.32774353 227.90002441 C-13.36628427 228.01686264 -13.36628427 228.01686264 -9.33000183 225.51312256 C-8.29311334 223.11338257 -8.03069931 221.38960635 -8.01953125 218.77734375 C-8.01566406 217.9059375 -8.01179688 217.03453125 -8.0078125 216.13671875 C-8.01941406 215.234375 -8.03101563 214.33203125 -8.04296875 213.40234375 C-8.03136719 212.5 -8.01976562 211.59765625 -8.0078125 210.66796875 C-8.01167969 209.7965625 -8.01554687 208.92515625 -8.01953125 208.02734375 C-8.02460693 206.84011719 -8.02460693 206.84011719 -8.02978516 205.62890625 C-8.56453142 202.56168237 -9.06745448 201.51749738 -11.41796875 199.40234375 C-14.73484577 198.79038381 -18.0337931 198.89842997 -21.3972168 198.94824219 C-22.42177979 198.94765808 -23.44634277 198.94707397 -24.50195312 198.94647217 C-27.89487365 198.94926309 -31.28692009 198.98040365 -34.6796875 199.01171875 C-37.02952087 199.01917753 -39.37936046 199.02487217 -41.72920227 199.02886963 C-47.91896692 199.04415442 -54.10835711 199.08346119 -60.29797363 199.12768555 C-66.61200901 199.16857667 -72.9261048 199.1868675 -79.24023438 199.20703125 C-91.63297717 199.24995232 -104.02544184 199.31823837 -116.41796875 199.40234375 Z M4.58203125 199.40234375 C4.58203125 208.64234375 4.58203125 217.88234375 4.58203125 227.40234375 C13.49203125 227.40234375 22.40203125 227.40234375 31.58203125 227.40234375 C31.58203125 218.16234375 31.58203125 208.92234375 31.58203125 199.40234375 C22.67203125 199.40234375 13.76203125 199.40234375 4.58203125 199.40234375 Z " fill="#DF7829" transform="translate(229.41796875,27.59765625)"/>
<path d="M0 0 C26.4 0 52.8 0 80 0 C80 20.6214957 79.52486362 39.47803148 64.78515625 55.3515625 C62.03571949 57.8904297 59.3835286 59.36865585 56 61 C54.46279297 61.77923828 54.46279297 61.77923828 52.89453125 62.57421875 C48.38970327 64.48129832 44.02578682 64.53553879 39.1875 64.5 C38.3003833 64.49500488 37.4132666 64.49000977 36.49926758 64.48486328 C29.67591926 64.30294078 24.53666629 63.18785171 19 59 C18.29230469 58.47277344 17.58460938 57.94554687 16.85546875 57.40234375 C15.11309811 56.00363596 13.48126813 54.67255772 12 53 C12 52.34 12 51.68 12 51 C11.34 51 10.68 51 10 51 C-2.89130471 36.74590022 0 17.85547125 0 0 Z " fill="#E47A2A" transform="translate(197,116)"/>
<path d="M0 0 C4.05301284 2.10156221 6.32051532 3.77047206 8 8 C8.265625 10.25390625 8.265625 10.25390625 8.25 12.5625 C8.25515625 13.32691406 8.2603125 14.09132812 8.265625 14.87890625 C8 17 8 17 6 20 C6.33307076 21.83754358 6.33307076 21.83754358 7 24 C7.22117559 26.4138176 7.40572242 28.83114597 7.5625 31.25 C7.68818359 33.14492187 7.68818359 33.14492187 7.81640625 35.078125 C7.87699219 36.04234375 7.93757813 37.0065625 8 38 C8.495 36.824375 8.99 35.64875 9.5 34.4375 C12.57424784 28.31073045 18.22921225 22.82509805 24.765625 20.44140625 C33.47330873 18.72118202 42.15575704 18.89582193 49.91015625 23.4375 C54.68797823 27.00970335 59.41158315 31.94985802 60.30078125 38.0703125 C60.31206873 40.04938401 60.15908865 42.02730077 60 44 C56.2694077 46.48706153 54.13924196 46.33096694 49.6875 46.375 C48.39199219 46.40335938 47.09648437 46.43171875 45.76171875 46.4609375 C41.46047623 45.93389013 39.4771946 44.48160856 36 42 C34.68 42 33.36 42 32 42 C30.67770811 44.64458379 30.90322806 46.67761301 30.9375 49.625 C30.94652344 50.62789062 30.95554687 51.63078125 30.96484375 52.6640625 C30.97644531 53.43492187 30.98804688 54.20578125 31 55 C34.68319223 55.31603273 34.68319223 55.31603273 37.6875 53.5 C38.120625 53.005 38.55375 52.51 39 52 C39.66 52 40.32 52 41 52 C41 51.34 41 50.68 41 50 C43.79224073 49.91928212 46.58216566 49.85964592 49.375 49.8125 C50.56609375 49.77479492 50.56609375 49.77479492 51.78125 49.73632812 C53.85586148 49.70995595 55.93100865 49.84513538 58 50 C60.50553221 53.75829831 60.84320243 56.65600178 60 61 C57.00723455 67.61269131 52.59736043 72.04299099 46 75 C37.34432858 78.14450778 29.38602625 77.47007983 21 74 C14.41208397 70.41911185 11.1055827 65.71880873 8 59 C7.97421875 59.97582031 7.9484375 60.95164063 7.921875 61.95703125 C7.86515625 63.22933594 7.8084375 64.50164062 7.75 65.8125 C7.68039062 67.70935547 7.68039062 67.70935547 7.609375 69.64453125 C7 73 7 73 5.390625 74.92578125 C2.15780172 76.37843877 -0.46399253 76.39747462 -4 76.375 C-5.8253125 76.38660156 -5.8253125 76.38660156 -7.6875 76.3984375 C-11.27775349 75.96659097 -12.4529733 75.4788239 -15 73 C-15.48774719 70.80592346 -15.48774719 70.80592346 -15.4699707 68.22485352 C-15.47289627 67.25697403 -15.47582184 66.28909454 -15.47883606 65.29188538 C-15.45257393 63.72621071 -15.45257393 63.72621071 -15.42578125 62.12890625 C-15.42249313 61.05503159 -15.41920502 59.98115692 -15.41581726 58.8747406 C-15.40538835 56.60254872 -15.38542499 54.33038371 -15.35668945 52.05834961 C-15.31271826 48.57976656 -15.29526956 45.1018731 -15.28320312 41.62304688 C-15.26977474 39.41665672 -15.25485059 37.21027505 -15.23828125 35.00390625 C-15.23089432 33.96214737 -15.22350739 32.92038849 -15.21589661 31.84706116 C-15.20306137 30.87602951 -15.19022614 29.90499786 -15.17700195 28.90454102 C-15.16715775 28.05199234 -15.15731354 27.19944366 -15.14717102 26.32106018 C-15 24 -15 24 -14.36393738 21.88096619 C-13.70872704 19.67569738 -13.70872704 19.67569738 -16 17 C-16.54605181 13.60873084 -16.54185328 10.39200153 -16 7 C-11.64305563 1.34774784 -7.14228351 -1.10712145 0 0 Z " fill="#000000" transform="translate(412,138)"/>
<path d="M0 0 C6.87192369 4.32227002 12.73141164 9.45942638 15.2109375 17.390625 C15.7109375 20.703125 15.7109375 20.703125 15.2109375 23.390625 C12.79870191 25.88645291 11.28663872 26.37937447 7.8203125 26.89453125 C0.47337813 27.00607378 -4.55007011 26.95980197 -10.23046875 21.8046875 C-12.40228487 19.83426786 -13.85947049 19.31550726 -16.7890625 19.390625 C-21.75450862 20.88218275 -21.75450862 20.88218275 -25.2265625 24.515625 C-26.24094415 29.70024233 -26.63636638 34.39946088 -24.5390625 39.328125 C-21.92433727 42.40976545 -20.01159324 43.13474647 -16.1015625 43.953125 C-12.30842085 43.30900661 -11.63395056 42.45509088 -8.9140625 39.890625 C-4.50274577 36.15913448 -0.98771251 35.730657 4.5859375 35.765625 C5.63950439 35.76852539 5.63950439 35.76852539 6.71435547 35.77148438 C9.61838677 35.88660672 11.73160873 36.0604849 14.15625 37.73046875 C16.04696525 40.70659461 15.66114755 42.95777333 15.2109375 46.390625 C11.44752048 54.55243888 4.89689305 61.04737301 -3.43359375 64.48046875 C-12.44792519 66.9255668 -24.24959233 66.88917634 -32.6875 62.69921875 C-41.44965822 57.24322804 -46.22225952 50.27771053 -49.43359375 40.41015625 C-51.05635648 31.19072405 -50.30539752 21.34708342 -45.5 13.20703125 C-35.10064723 -1.50221372 -16.97093046 -8.22481954 0 0 Z " fill="#000000" transform="translate(354.7890625,148.609375)"/>
<path d="M0 0 C0.763125 0.886875 1.52625 1.77375 2.3125 2.6875 C2.80492187 3.25082031 3.29734375 3.81414062 3.8046875 4.39453125 C12.75105233 15.32155894 13.3125 27.01799088 13.3125 40.6875 C1.4325 40.6875 -10.4475 40.6875 -22.6875 40.6875 C-22.66429687 38.07457031 -22.64109375 35.46164063 -22.6171875 32.76953125 C-22.60157751 30.23104335 -22.58944044 27.69256085 -22.57763672 25.15405273 C-22.56759649 23.39361161 -22.55396156 21.63318709 -22.53662109 19.87280273 C-22.51228564 17.33833715 -22.50099704 14.80409261 -22.4921875 12.26953125 C-22.47670364 11.09424614 -22.47670364 11.09424614 -22.46090698 9.8952179 C-22.46004456 5.6682718 -22.9063975 2.5148176 -24.6875 -1.3125 C-24.8125 -4.125 -24.8125 -4.125 -24.6875 -6.3125 C-28.6864446 -3.64653693 -29.66967752 -0.84651147 -30.6875 3.6875 C-31.15915909 8.87207668 -31.247155 14.04841688 -31.3125 19.25 C-31.34927971 21.33555496 -31.3901411 23.42093895 -31.43515015 25.5063324 C-31.47431378 27.39543644 -31.50238744 29.28476095 -31.52978516 31.17407227 C-31.68960957 34.73449509 -32.12624083 38.16991934 -32.6875 41.6875 C-33.37682617 41.52378906 -34.06615234 41.36007813 -34.77636719 41.19140625 C-38.00278825 40.63292478 -40.99166243 40.59169606 -44.265625 40.625 C-45.50828125 40.63273437 -46.7509375 40.64046875 -48.03125 40.6484375 C-49.96484375 40.66777344 -49.96484375 40.66777344 -51.9375 40.6875 C-54.50516749 40.71287221 -57.0728823 40.73395161 -59.640625 40.75 C-61.34460449 40.76740234 -61.34460449 40.76740234 -63.08300781 40.78515625 C-65.6875 40.6875 -65.6875 40.6875 -66.6875 39.6875 C-68.00389101 26.83852393 -67.70577171 16.17081509 -59.45703125 5.9140625 C-53.47931655 -1.04856115 -53.47931655 -1.04856115 -49.6875 -2.3125 C-49.6875 -2.9725 -49.6875 -3.6325 -49.6875 -4.3125 C-48.57375 -4.786875 -47.46 -5.26125 -46.3125 -5.75 C-44.42039006 -6.56556463 -42.53037291 -7.39106355 -40.6875 -8.3125 C-25.81648863 -9.95928985 -11.93427172 -10.2690245 0 0 Z " fill="#E47E2E" transform="translate(263.6875,69.3125)"/>
<path d="M0 0 C0.73798828 0.03351563 1.47597656 0.06703125 2.23632812 0.1015625 C2.98591797 0.11960938 3.73550781 0.13765625 4.5078125 0.15625 C6.35536523 0.20332141 8.20225971 0.27506484 10.04882812 0.3515625 C10.04882812 1.0115625 10.04882812 1.6715625 10.04882812 2.3515625 C10.70882813 2.3515625 11.36882812 2.3515625 12.04882812 2.3515625 C13.27520383 4.80431391 13.16298127 6.4021406 13.14648438 9.140625 C13.14326172 10.08164063 13.14003906 11.02265625 13.13671875 11.9921875 C13.12833984 12.97703125 13.11996094 13.961875 13.11132812 14.9765625 C13.10681641 15.96914062 13.10230469 16.96171875 13.09765625 17.984375 C13.08584957 20.4401641 13.06938213 22.89583354 13.04882812 25.3515625 C13.77070313 24.6296875 14.49257813 23.9078125 15.23632812 23.1640625 C16.16445313 22.2359375 17.09257812 21.3078125 18.04882812 20.3515625 C18.77457031 19.42988281 19.5003125 18.50820312 20.24804688 17.55859375 C24.34170408 14.33276903 27.81158589 14.79429498 32.86132812 15.0390625 C33.74498047 15.06162109 34.62863281 15.08417969 35.5390625 15.10742188 C37.70971723 15.16608822 39.87949503 15.25576271 42.04882812 15.3515625 C43.44837455 17.90504298 44.0490738 19.17541361 44.04492188 22.15234375 C42.6784777 26.54104093 40.18400417 29.19516302 37.11132812 32.5390625 C36.01766876 33.76063524 34.92517545 34.98325317 33.83398438 36.20703125 C33.34808838 36.73965576 32.86219238 37.27228027 32.36157227 37.82104492 C29.79374334 40.63024378 29.79374334 40.63024378 29.15820312 44.20703125 C30.3876072 47.16730686 32.2194732 49.2301156 34.29882812 51.6640625 C35.10578125 52.6334375 35.91273438 53.6028125 36.74414062 54.6015625 C38.09042378 56.20797494 39.43850782 57.81288734 40.79101562 59.4140625 C43.12584724 62.36887765 44.05717595 63.90077988 43.98632812 67.7265625 C43.04882812 70.3515625 43.04882812 70.3515625 41.04882812 71.3515625 C38.11577062 71.55605854 35.23467752 71.67546386 32.29882812 71.7265625 C31.49960937 71.76394531 30.70039062 71.80132812 29.87695312 71.83984375 C25.66234848 71.90223099 22.93716291 71.71603481 19.61914062 68.97265625 C18.7709375 68.10769531 17.92273438 67.24273437 17.04882812 66.3515625 C15.87320312 65.206875 15.87320312 65.206875 14.67382812 64.0390625 C14.13757813 63.4821875 13.60132813 62.9253125 13.04882812 62.3515625 C13.17257812 63.74375 13.17257812 63.74375 13.29882812 65.1640625 C13.04882812 68.3515625 13.04882812 68.3515625 11.47070312 70.02734375 C8.21664924 71.80657644 5.7412961 71.75003158 2.04882812 71.7265625 C0.22351563 71.73816406 0.22351563 71.73816406 -1.63867188 71.75 C-5.25667109 71.31481613 -6.43504606 70.91634449 -8.95117188 68.3515625 C-9.45237732 65.58802795 -9.45237732 65.58802795 -9.45288086 62.19946289 C-9.46226181 60.93127213 -9.47164276 59.66308136 -9.48130798 58.35646057 C-9.47082884 56.97070646 -9.45945971 55.58495883 -9.44726562 54.19921875 C-9.4474206 52.7781924 -9.44890935 51.35716563 -9.45167542 49.93614197 C-9.45306014 46.95764483 -9.44049166 43.97962879 -9.41772461 41.0012207 C-9.38936485 37.1866808 -9.39206895 33.37294187 -9.40481472 29.55834293 C-9.4117769 26.62346072 -9.40397617 23.688763 -9.39155769 20.75390434 C-9.38704656 19.34771876 -9.38670346 17.94151336 -9.39062309 16.535326 C-9.39353956 14.56786966 -9.37485294 12.60041723 -9.35522461 10.63305664 C-9.34982162 9.51403458 -9.34441864 8.39501251 -9.33885193 7.24208069 C-8.51445734 1.09544626 -5.99498808 -0.10850657 0 0 Z " fill="#000000" transform="translate(481.951171875,142.6484375)"/>
<path d="M0 0 C5.05671232 2.92757029 8.55110302 6.21580907 10.4375 11.875 C10.66938622 14.59831488 10.56843368 17.12539269 10.4375 19.875 C9.7775 20.535 9.1175 21.195 8.4375 21.875 C7.4475 21.875 6.4575 21.875 5.4375 21.875 C5.870625 22.40867188 6.30375 22.94234375 6.75 23.4921875 C10.53711681 28.55920952 12.26852918 32.20761446 11.82421875 38.5859375 C10.92558844 43.90510279 8.5819891 47.48020069 4.30078125 50.7734375 C-2.54727287 54.82197264 -10.32738372 55.94187204 -18.03515625 54.37109375 C-25.13463471 52.4971741 -30.97745871 49.78666796 -35 43.4375 C-36.59958532 39.79044547 -37.17093863 37.78639118 -36.5625 33.875 C-34.78265595 30.7390843 -34.03941793 30.03397264 -30.5625 28.875 C-31.201875 28.111875 -31.84125 27.34875 -32.5 26.5625 C-35.79937307 22.26331691 -36.20418843 18.15005638 -35.5625 12.875 C-33.79681046 6.49227092 -30.19365493 3.41401157 -24.68359375 0.00390625 C-17.35106749 -3.89867218 -7.40915406 -3.48140974 0 0 Z " fill="#000000" transform="translate(559.5625,160.125)"/>
<path d="M0 0 C0.73798828 0.03351563 1.47597656 0.06703125 2.23632812 0.1015625 C2.98591797 0.11960938 3.73550781 0.13765625 4.5078125 0.15625 C6.35536523 0.20332141 8.20225971 0.27506484 10.04882812 0.3515625 C10.04882812 1.0115625 10.04882812 1.6715625 10.04882812 2.3515625 C10.70882813 2.3515625 11.36882812 2.3515625 12.04882812 2.3515625 C13.42316482 5.10023589 13.1988731 7.32955912 13.22583008 10.40600586 C13.23866531 11.67749985 13.25150055 12.94899384 13.26472473 14.25901794 C13.27289059 15.65314343 13.28033461 17.04727331 13.28710938 18.44140625 C13.2911849 19.14191164 13.29526043 19.84241703 13.29945946 20.56414986 C13.32031433 24.26989574 13.33462006 27.97560462 13.34399414 31.68139648 C13.355074 35.51289247 13.38949266 39.34381013 13.42916584 43.17510128 C13.45527707 46.11846515 13.46368088 49.06168986 13.46727562 52.00515938 C13.47215377 53.41780071 13.48380275 54.83043532 13.50231361 56.24296379 C13.52658956 58.2177425 13.52333167 60.19280189 13.51879883 62.16772461 C13.52759819 63.85411293 13.52759819 63.85411293 13.53657532 65.5745697 C13.04882812 68.3515625 13.04882812 68.3515625 11.22648621 70.21315002 C8.11506428 71.83970543 5.53902437 71.74874595 2.04882812 71.7265625 C0.22351563 71.73816406 0.22351563 71.73816406 -1.63867188 71.75 C-5.25667109 71.31481613 -6.43504606 70.91634449 -8.95117188 68.3515625 C-9.45237732 65.58802795 -9.45237732 65.58802795 -9.45288086 62.19946289 C-9.46226181 60.93127213 -9.47164276 59.66308136 -9.48130798 58.35646057 C-9.47082884 56.97070646 -9.45945971 55.58495883 -9.44726562 54.19921875 C-9.4474206 52.7781924 -9.44890935 51.35716563 -9.45167542 49.93614197 C-9.45306014 46.95764483 -9.44049166 43.97962879 -9.41772461 41.0012207 C-9.38936485 37.1866808 -9.39206895 33.37294187 -9.40481472 29.55834293 C-9.4117769 26.62346072 -9.40397617 23.688763 -9.39155769 20.75390434 C-9.38704656 19.34771876 -9.38670346 17.94151336 -9.39062309 16.535326 C-9.39353956 14.56786966 -9.37485294 12.60041723 -9.35522461 10.63305664 C-9.34982162 9.51403458 -9.34441864 8.39501251 -9.33885193 7.24208069 C-8.51445734 1.09544626 -5.99498808 -0.10850657 0 0 Z " fill="#000000" transform="translate(380.951171875,142.6484375)"/>
<path d="M0 0 C4.33340287 1.96972858 5.6462039 3.15973427 7.5 7.5625 C8 11 8 11 6 14 C2.06322571 14.61238711 0.50345661 14.36615026 -2.75 12 C-3.4925 11.34 -4.235 10.68 -5 10 C-5.66 10 -6.32 10 -7 10 C-3.73911041 15.14346502 -0.64003192 20.00441696 4 24 C4.66 24 5.32 24 6 24 C6.556875 23.175 7.11375 22.35 7.6875 21.5 C10 19 10 19 13.75 18.6875 C14.8225 18.790625 15.895 18.89375 17 19 C18.47424678 24.03700982 18.47424678 24.03700982 17.10546875 26.81640625 C16.52732422 27.71166016 16.52732422 27.71166016 15.9375 28.625 C13.6692805 31.6920476 13.6692805 31.6920476 14.5 34.1875 C16.02556362 36.1159845 16.02556362 36.1159845 18.1875 38 C18.785625 38.66 19.38375 39.32 20 40 C19.75 42.25 19.75 42.25 19 44 C15.16291211 45.00495159 13.54367228 45.27738382 9.9375 43.4375 C7.10730209 41.64908209 7.10730209 41.64908209 4.3125 42.75 C3.549375 43.1625 2.78625 43.575 2 44 C-3.67147014 45.89049005 -9.80797914 45.75724357 -15.4375 43.8125 C-18.84670514 41.401111 -21.13384878 38.73230245 -23 35 C-23.54303697 28.59216377 -22.75206595 25.25289233 -19 20 C-18.01 19.67 -17.02 19.34 -16 19 C-16.2475 18.2575 -16.2475 18.2575 -16.5 17.5 C-17.51874407 12.40627966 -17.95702995 8.57226349 -15.25 4.125 C-10.61347056 -0.25394447 -6.19070415 -0.84760074 0 0 Z M-11 26 C-12.19595537 28.8371515 -12.19595537 28.8371515 -13 32 C-11.30207184 35.25088039 -11.30207184 35.25088039 -8.125 35.8125 C-4.92411417 36.00455315 -3.63390925 35.72217143 -1 34 C-3.46177474 29.55371757 -3.46177474 29.55371757 -7 26 C-8.32 26 -9.64 26 -11 26 Z " fill="#000000" transform="translate(592,190)"/>
<path d="M0 0 C3.49604315 1.94971637 5.242075 3.358869 7.25 6.8125 C7.5625 10.0625 7.5625 10.0625 7.25 12.8125 C6.25 13.8125 6.25 13.8125 2.9375 14.125 C-1.43322947 13.7545992 -1.83686175 12.81961045 -4.75 9.8125 C-7.917832 9.47801741 -7.917832 9.47801741 -10.75 9.8125 C-10.75 11.1325 -10.75 12.4525 -10.75 13.8125 C-8.955625 14.4621875 -8.955625 14.4621875 -7.125 15.125 C-0.55332827 17.62849399 4.3053058 19.66341786 8.25 25.8125 C9.26677665 30.2421096 8.61364517 33.12417164 6.5 37.125 C3.23734411 41.0220612 0.46225078 43.42601618 -4.73046875 44.05078125 C-10.57376317 44.24728142 -14.95985491 43.27579739 -19.75 39.8125 C-21.96146509 37.11727693 -22.66217092 35.56783008 -23.0625 32.125 C-22.75 29.8125 -22.75 29.8125 -20.75 27.8125 C-17.875 27.375 -17.875 27.375 -14.75 27.8125 C-14.110625 28.6375 -13.47125 29.4625 -12.8125 30.3125 C-12.131875 31.1375 -11.45125 31.9625 -10.75 32.8125 C-7.08200185 33.23021804 -7.08200185 33.23021804 -3.75 32.8125 C-3.42 31.1625 -3.09 29.5125 -2.75 27.8125 C-3.47445312 27.64234375 -4.19890625 27.4721875 -4.9453125 27.296875 C-11.77876875 25.5839553 -16.37098867 23.8536102 -21.625 19.125 C-23.42900609 15.41676525 -23.25676895 11.85217246 -22.75 7.8125 C-21.39159214 3.99197789 -19.49192659 2.44042212 -16.0625 0.5 C-10.3958199 -2.0531196 -5.97735002 -1.89282751 0 0 Z " fill="#000000" transform="translate(799.75,191.1875)"/>
<path d="M0 0 C1.61358398 -0.01836914 1.61358398 -0.01836914 3.25976562 -0.03710938 C4.28650391 -0.03904297 5.31324219 -0.04097656 6.37109375 -0.04296875 C7.79119751 -0.04913208 7.79119751 -0.04913208 9.23999023 -0.05541992 C11.5625 0.1875 11.5625 0.1875 13.5625 2.1875 C13.3125 5.25 13.3125 5.25 12.5625 8.1875 C9.67834117 9.62957941 7.14528472 9.28144887 3.9375 9.25 C2.74898437 9.24097656 1.56046875 9.23195312 0.3359375 9.22265625 C-0.57929687 9.21105469 -1.49453125 9.19945312 -2.4375 9.1875 C-2.1075 11.4975 -1.7775 13.8075 -1.4375 16.1875 C-0.66664063 16.23648438 0.10421875 16.28546875 0.8984375 16.3359375 C1.90132812 16.41070312 2.90421875 16.48546875 3.9375 16.5625 C5.43410156 16.66691406 5.43410156 16.66691406 6.9609375 16.7734375 C9.5625 17.1875 9.5625 17.1875 11.5625 19.1875 C11.8125 21.6875 11.8125 21.6875 11.5625 24.1875 C9.5625 26.1875 9.5625 26.1875 6.7421875 26.3828125 C5.65164063 26.35960937 4.56109375 26.33640625 3.4375 26.3125 C2.34179688 26.29445312 1.24609375 26.27640625 0.1171875 26.2578125 C-0.72585938 26.23460937 -1.56890625 26.21140625 -2.4375 26.1875 C-2.4375 28.8275 -2.4375 31.4675 -2.4375 34.1875 C-1.45007813 34.15269531 -0.46265625 34.11789063 0.5546875 34.08203125 C1.83601562 34.05496094 3.11734375 34.02789062 4.4375 34 C6.35175781 33.94779297 6.35175781 33.94779297 8.3046875 33.89453125 C9.91730469 34.03955078 9.91730469 34.03955078 11.5625 34.1875 C13.5625 37.1875 13.5625 37.1875 13.4375 39.75 C12.5625 42.1875 12.5625 42.1875 11.0390625 43.32421875 C7.41468165 44.58760703 3.85261978 44.47610903 0.0625 44.4375 C-1.07638672 44.44910156 -1.07638672 44.44910156 -2.23828125 44.4609375 C-6.22449201 44.44697529 -8.97696757 44.12995048 -12.4375 42.1875 C-12.46214638 36.36678378 -12.4803343 30.54609766 -12.49243164 24.7253418 C-12.49747267 22.74356559 -12.50430538 20.76179311 -12.51293945 18.7800293 C-12.52501515 15.93797891 -12.53073045 13.09597753 -12.53515625 10.25390625 C-12.54031754 9.36224258 -12.54547882 8.47057892 -12.55079651 7.55189514 C-12.55099177 5.43009399 -12.4996003 3.3083922 -12.4375 1.1875 C-9.96151267 -1.28848733 -3.32889842 0.0019874 0 0 Z " fill="#000000" transform="translate(753.4375,190.8125)"/>
<path d="M0 0 C0.86238281 0.00322266 1.72476563 0.00644531 2.61328125 0.00976562 C3.46019531 -0.00634766 4.30710937 -0.02246094 5.1796875 -0.0390625 C10.33217524 -0.0430691 13.90337217 0.46263593 18.36328125 3.32226562 C21.30593304 6.56932967 22.28128325 9.23579213 22.61328125 13.63476562 C22.2944203 18.33796462 21.1439323 21.63641776 17.67578125 24.91992188 C14.67635259 26.73883216 12.08017662 27.05906923 8.61328125 27.50976562 C7.4428125 27.66832031 6.27234375 27.826875 5.06640625 27.99023438 C4.174375 28.09980469 3.28234375 28.209375 2.36328125 28.32226562 C2.30269531 29.32128906 2.24210938 30.3203125 2.1796875 31.34960938 C2.09589844 32.63996094 2.01210938 33.9303125 1.92578125 35.25976562 C1.84457031 36.54753906 1.76335938 37.8353125 1.6796875 39.16210938 C1.36328125 42.32226562 1.36328125 42.32226562 0.36328125 43.32226562 C-2.30730726 43.46341724 -4.96104113 43.3647367 -7.63671875 43.32226562 C-9.29348248 40.00873817 -8.79984119 36.30886201 -8.8046875 32.66601562 C-8.8080159 31.80794312 -8.8113443 30.94987061 -8.81477356 30.0657959 C-8.81984013 28.25008684 -8.82218197 26.43436846 -8.82202148 24.61865234 C-8.82420992 21.83350393 -8.84237364 19.04875027 -8.86132812 16.26367188 C-8.86426165 14.50195448 -8.86624672 12.74023521 -8.8671875 10.97851562 C-8.87437302 10.14203491 -8.88155853 9.3055542 -8.88896179 8.44372559 C-8.85834814 0.74010805 -7.06775664 0.06083359 0 0 Z M1.36328125 9.32226562 C1.34265625 10.62164062 1.32203125 11.92101562 1.30078125 13.25976562 C1.28917969 13.99066406 1.27757812 14.7215625 1.265625 15.47460938 C1.15766941 17.33958704 1.15766941 17.33958704 2.36328125 18.32226562 C7.06818691 18.7467537 7.06818691 18.7467537 11.36328125 17.13476562 C12.59974702 15.28235797 12.59974702 15.28235797 12.17578125 12.69726562 C11.61683891 10.1567456 11.61683891 10.1567456 9.36328125 9.32226562 C7.98985294 9.25331842 6.61326023 9.23758854 5.23828125 9.25976562 C3.32015625 9.29070312 3.32015625 9.29070312 1.36328125 9.32226562 Z " fill="#000000" transform="translate(708.63671875,190.677734375)"/>
<path d="M0 0 C3.625 0.25 3.625 0.25 5.15234375 1.41015625 C7.04350919 3.77285896 8.39706789 6.26390602 9.8125 8.9375 C10.34230469 9.93136719 10.87210938 10.92523438 11.41796875 11.94921875 C11.81628906 12.70847656 12.21460938 13.46773437 12.625 14.25 C13.11871094 13.32316406 13.61242187 12.39632812 14.12109375 11.44140625 C14.76813499 10.23172045 15.41527554 9.02208778 16.0625 7.8125 C16.38798828 7.20083984 16.71347656 6.58917969 17.04882812 5.95898438 C19.51171875 1.36328125 19.51171875 1.36328125 20.625 0.25 C23.29558851 0.10884839 25.94932238 0.20752893 28.625 0.25 C29.45025226 3.09727719 29.83828545 4.70312334 28.74462891 7.50732422 C28.28491699 8.2654541 27.82520508 9.02358398 27.3515625 9.8046875 C26.85648193 10.66022217 26.36140137 11.51575684 25.85131836 12.3972168 C25.3228833 13.29738525 24.79444824 14.19755371 24.25 15.125 C19.73700905 23.16588443 17.42071247 29.29682201 17.65234375 38.51171875 C17.625 41.25 17.625 41.25 15.625 43.25 C12.0625 43.4375 12.0625 43.4375 8.625 43.25 C8.295 42.92 7.965 42.59 7.625 42.25 C7.65980469 40.94289063 7.65980469 40.94289063 7.6953125 39.609375 C7.85165682 29.29064959 4.62024562 22.28352712 -0.51318359 13.39746094 C-1.00512207 12.5418457 -1.49706055 11.68623047 -2.00390625 10.8046875 C-2.45838135 10.04655762 -2.91285645 9.28842773 -3.38110352 8.50732422 C-4.52892261 5.90041306 -4.63583345 4.06990276 -4.375 1.25 C-3.375 0.25 -3.375 0.25 0 0 Z " fill="#000000" transform="translate(661.375,190.75)"/>
<path d="M0 0 C1.31419922 -0.01224609 2.62839844 -0.02449219 3.98242188 -0.03710938 C5.23474609 -0.03904297 6.48707031 -0.04097656 7.77734375 -0.04296875 C8.93355225 -0.04707764 10.08976074 -0.05118652 11.28100586 -0.05541992 C14.0625 0.1875 14.0625 0.1875 16.0625 2.1875 C15.8125 5.25 15.8125 5.25 15.0625 8.1875 C11.84798731 9.79475635 8.62637464 9.24498185 5.0625 9.1875 C5.07035522 10.67914673 5.07035522 10.67914673 5.07836914 12.20092773 C5.09642041 15.87783921 5.10793246 19.55474675 5.11743164 23.23168945 C5.12247157 24.82544614 5.1293035 26.41919819 5.13793945 28.01293945 C5.15001999 30.29900253 5.15573155 32.58500467 5.16015625 34.87109375 C5.16531754 35.58776718 5.17047882 36.30444061 5.17579651 37.04283142 C5.17599263 38.75813672 5.12442007 40.47331266 5.0625 42.1875 C4.0625 43.1875 4.0625 43.1875 2.21484375 43.28515625 C0.1640625 43.25260417 -1.88671875 43.22005208 -3.9375 43.1875 C-5.41655238 40.22939524 -5.05940903 37.2327845 -5.03515625 33.9921875 C-5.0337413 33.28474396 -5.03232635 32.57730042 -5.03086853 31.84841919 C-5.025266 29.58640331 -5.01271318 27.32448602 -5 25.0625 C-4.99498532 23.52994935 -4.99042236 21.99739714 -4.98632812 20.46484375 C-4.97529577 16.70569112 -4.95802952 12.94661228 -4.9375 9.1875 C-6.21496094 9.21199219 -7.49242187 9.23648438 -8.80859375 9.26171875 C-12.6796875 9.3359375 -12.6796875 9.3359375 -15 8 C-16.3320522 5.42469907 -15.79102401 3.89032604 -14.9375 1.1875 C-12.18198489 -1.56801511 -3.71775429 0.00181797 0 0 Z " fill="#000000" transform="translate(633.9375,190.8125)"/>
<path d="M0 0 C0.99 0.33 1.98 0.66 3 1 C2.02659668 1.77545166 1.05319336 2.55090332 0.05029297 3.34985352 C-5.22284559 9.56371752 -3.84776359 18.70250138 -3.8046875 26.40234375 C-3.81594483 28.20839709 -3.82982861 30.0144358 -3.84622192 31.82044983 C-3.88219733 36.55687186 -3.88264142 41.29264757 -3.87554932 46.0291748 C-3.87463515 50.86917619 -3.90751281 55.708937 -3.9375 60.54882812 C-3.99130334 70.03261981 -4.00755116 79.51607251 -4 89 C-0.7 89 2.6 89 6 89 C6 89.33 6 89.66 6 90 C2.04 90 -1.92 90 -6 90 C-6.04640755 79.82059381 -6.08191197 69.64121294 -6.10362434 59.46172237 C-6.11404691 54.73461601 -6.1281782 50.00758219 -6.15087891 45.28051758 C-6.17266177 40.71584424 -6.18458011 36.15124056 -6.18975449 31.58651924 C-6.19344048 29.84786445 -6.20063826 28.10921332 -6.21146011 26.3705883 C-6.22604744 23.92918634 -6.22797493 21.48806962 -6.22705078 19.04663086 C-6.23424133 18.33308945 -6.24143188 17.61954803 -6.24884033 16.88438416 C-6.22552509 11.16574394 -5.71945771 5.97231914 -1.875 1.5625 C-0.946875 0.7890625 -0.946875 0.7890625 0 0 Z " fill="#925A2E" transform="translate(179,34)"/>
<path d="M0 0 C0.33 0 0.66 0 1 0 C1.125 2.375 1.125 2.375 1 5 C-1.37739124 7.37739124 -2.03168657 7.29033163 -5.28125 7.44921875 C-6.12300781 7.49240234 -6.96476562 7.53558594 -7.83203125 7.58007812 C-8.71246094 7.61552734 -9.59289062 7.65097656 -10.5 7.6875 C-11.38042969 7.73455078 -12.26085937 7.78160156 -13.16796875 7.83007812 C-19.72712054 8.13643973 -19.72712054 8.13643973 -22 7 C-22.33 7.66 -22.66 8.32 -23 9 C-23 8.34 -23 7.68 -23 7 C-24.02134033 7.07726318 -25.04268066 7.15452637 -26.0949707 7.23413086 C-41.46813653 8.27600311 -56.79359601 7.89445677 -72.1875 7.5625 C-74.89515568 7.50837127 -77.60284984 7.45631032 -80.31054688 7.40429688 C-86.87385655 7.27666749 -93.43697383 7.14142434 -100 7 C-100 6.67 -100 6.34 -100 6 C-76.37497567 5.13949345 -52.76350843 4.90825799 -29.125 4.9375 C-28.42810184 4.93835602 -27.73120369 4.93921204 -27.01318741 4.94009399 C-18.34210131 4.95153191 -9.67104753 4.97167668 -1 5 C-0.67 3.35 -0.34 1.7 0 0 Z " fill="#F2832A" transform="translate(164,119)"/>
<path d="M0 0 C1.98960773 3.3183077 2.2361745 5.79959699 2.1953125 9.640625 C2.18886719 10.71054688 2.18242187 11.78046875 2.17578125 12.8828125 C2.15902344 13.99398437 2.14226562 15.10515625 2.125 16.25 C2.11597656 17.37664062 2.10695312 18.50328125 2.09765625 19.6640625 C2.07410658 22.44292365 2.0412168 25.2213539 2 28 C2.81726563 27.82597656 3.63453125 27.65195313 4.4765625 27.47265625 C8.55472767 26.92558531 12.28981031 27.11615144 16.375 27.4375 C17.11105469 27.48970703 17.84710938 27.54191406 18.60546875 27.59570312 C20.40410629 27.72417723 22.20212909 27.86120949 24 28 C24 28.33 24 28.66 24 29 C21.89626131 29.17198448 19.79197308 29.33724805 17.6875 29.5 C16.51574219 29.5928125 15.34398437 29.685625 14.13671875 29.78125 C9.0952182 30.11007144 4.04962505 30.04155595 -1 30 C-1.02465746 25.8882744 -1.04283959 21.77657722 -1.05493164 17.66479492 C-1.0599708 16.26504772 -1.06680216 14.8653058 -1.07543945 13.46557617 C-1.0875232 11.45754223 -1.09269807 9.44947043 -1.09765625 7.44140625 C-1.10289307 6.23170166 -1.10812988 5.02199707 -1.11352539 3.77563477 C-1 1 -1 1 0 0 Z " fill="#B1682E" transform="translate(242,80)"/>
<path d="M0 0 C0.66 0 1.32 0 2 0 C2.495 1.485 2.495 1.485 3 3 C0.36 4.65 -2.28 6.3 -5 8 C-4.67 8.66 -4.34 9.32 -4 10 C-4.66 10 -5.32 10 -6 10 C-7.03717764 13.11153292 -7.18473398 15.45990579 -7.28125 18.7265625 C-7.31863281 19.8403125 -7.35601562 20.9540625 -7.39453125 22.1015625 C-7.4650774 24.45832635 -7.53538835 26.81509725 -7.60546875 29.171875 C-7.64285156 30.28304687 -7.68023437 31.39421875 -7.71875 32.5390625 C-7.76418945 34.07361084 -7.76418945 34.07361084 -7.81054688 35.63916016 C-8 38 -8 38 -9 39 C-10.92667507 39.08748207 -12.85651861 39.10697334 -14.78515625 39.09765625 C-16.53989258 39.09282227 -16.53989258 39.09282227 -18.33007812 39.08789062 C-20.17762695 39.07532227 -20.17762695 39.07532227 -22.0625 39.0625 C-23.91584961 39.05573242 -23.91584961 39.05573242 -25.80664062 39.04882812 C-28.87114117 39.03699608 -31.93554721 39.02051173 -35 39 C-35 38.67 -35 38.34 -35 38 C-22.625 37.505 -22.625 37.505 -10 37 C-10.0928125 35.04835937 -10.185625 33.09671875 -10.28125 31.0859375 C-10.35629383 28.51568623 -10.42909328 25.94536873 -10.5 23.375 C-10.60054688 21.44720703 -10.60054688 21.44720703 -10.703125 19.48046875 C-10.89762334 10.0959238 -10.89762334 10.0959238 -8.25390625 6.86816406 C-6.09375 5.2890625 -6.09375 5.2890625 -3.92773438 4.10009766 C-1.68327695 3.00995197 -1.68327695 3.00995197 0 0 Z " fill="#8E5428" transform="translate(270,176)"/>
<path d="M0 0 C17.82 0 35.64 0 54 0 C54.81814192 3.27256768 55.11871834 5.47993899 55.09765625 8.765625 C55.09443359 9.65507812 55.09121094 10.54453125 55.08789062 11.4609375 C55.07532227 12.84152344 55.07532227 12.84152344 55.0625 14.25 C55.05798828 15.18585938 55.05347656 16.12171875 55.04882812 17.0859375 C55.03706918 19.39069041 55.02063426 21.69531227 55 24 C54.67 24 54.34 24 54 24 C53.970271 23.16021606 53.970271 23.16021606 53.93994141 22.3034668 C53.84462217 19.76434146 53.73497247 17.22603112 53.625 14.6875 C53.5940625 13.80642578 53.563125 12.92535156 53.53125 12.01757812 C53.47324219 10.74624023 53.47324219 10.74624023 53.4140625 9.44921875 C53.3826416 8.66893311 53.3512207 7.88864746 53.31884766 7.0847168 C53.10412111 4.69844232 53.10412111 4.69844232 51 2 C48.74420102 1.52376333 48.74420102 1.52376333 46.09130859 1.56762695 C44.55994766 1.53793571 44.55994766 1.53793571 42.99765015 1.50764465 C41.89240997 1.50125473 40.7871698 1.49486481 39.6484375 1.48828125 C38.5192691 1.47033005 37.39010071 1.45237885 36.22671509 1.43388367 C32.60951507 1.37957112 28.99244854 1.34581734 25.375 1.3125 C22.92706467 1.27934548 20.479147 1.2448576 18.03125 1.20898438 C12.02095305 1.12383274 6.01063925 1.05557192 0 1 C0 0.67 0 0.34 0 0 Z " fill="#D46E26" transform="translate(167,226)"/>
<path d="M0 0 C0 8.58 0 17.16 0 26 C-0.66 26 -1.32 26 -2 26 C-2 17.75 -2 9.5 -2 1 C-10.58 1 -19.16 1 -28 1 C-28 0.67 -28 0.34 -28 0 C-23.89621612 -0.19660714 -19.79196562 -0.3807276 -15.6875 -0.5625 C-14.52025391 -0.61857422 -13.35300781 -0.67464844 -12.15039062 -0.73242188 C-11.03212891 -0.78076172 -9.91386719 -0.82910156 -8.76171875 -0.87890625 C-7.2142395 -0.94960327 -7.2142395 -0.94960327 -5.63549805 -1.02172852 C-3 -1 -3 -1 0 0 Z " fill="#7C4C2D" transform="translate(139,144)"/>
<path d="M0 0 C2.36300349 2.36300349 2.51433444 3.5798498 3.125 6.8125 C3.29257813 7.66457031 3.46015625 8.51664063 3.6328125 9.39453125 C3.995552 11.96843811 4.06523407 14.40461588 4 17 C1.69 16.67 -0.62 16.34 -3 16 C-3 15.34 -3 14.68 -3 14 C-2.01 13.67 -1.02 13.34 0 13 C0 8.71 0 4.42 0 0 Z " fill="#B77032" transform="translate(237,39)"/>
<path d="M0 0 C0.66 0.33 1.32 0.66 2 1 C2.19622046 5.12463416 2.38050216 9.24971573 2.5625 13.375 C2.61857422 14.550625 2.67464844 15.72625 2.73242188 16.9375 C2.78076172 18.05898437 2.82910156 19.18046875 2.87890625 20.3359375 C2.9260376 21.37282715 2.97316895 22.4097168 3.02172852 23.47802734 C3 26 3 26 2 28 C1.01 28 0.02 28 -1 28 C-0.75443359 26.34484375 -0.75443359 26.34484375 -0.50390625 24.65625 C0.12840414 19.59776685 0.1105947 14.59063952 0.0625 9.5 C0.05798828 8.5821875 0.05347656 7.664375 0.04882812 6.71875 C0.03716326 4.47909609 0.02079614 2.23958455 0 0 Z " fill="#A35C2A" transform="translate(139,186)"/>
<path d="M0 0 C0 0.66 0 1.32 0 2 C-0.66 2 -1.32 2 -2 2 C-2 3.98 -2 5.96 -2 8 C-2.33 8 -2.66 8 -3 8 C-3 6.35 -3 4.7 -3 3 C-4.98 3.99 -4.98 3.99 -7 5 C-7.33 4.01 -7.66 3.02 -8 2 C-14.435 2.495 -14.435 2.495 -21 3 C-18.00006878 0.00006878 -14.53290645 0.53393227 -10.5 0.375 C-9.71496094 0.33632813 -8.92992187 0.29765625 -8.12109375 0.2578125 C-5.4138003 0.12778811 -2.71086505 0 0 0 Z " fill="#8C5628" transform="translate(242,60)"/>
<path d="M0 0 C0.99 0.33 1.98 0.66 3 1 C2.59007812 1.38929687 2.18015625 1.77859375 1.7578125 2.1796875 C-2.93024553 7.04719273 -4.22471273 11.35659009 -5 18 C-5.33 18 -5.66 18 -6 18 C-5.81255605 6.36143498 -5.81255605 6.36143498 -3.8203125 3.0234375 C-2.4375 1.6875 -2.4375 1.6875 0 0 Z " fill="#CD752E" transform="translate(179,34)"/>
<path d="M0 0 C0.75 1.625 0.75 1.625 1 4 C-2.136 9.712 -2.136 9.712 -6 11 C-4.74194623 6.49197399 -3.09592835 3.5087188 0 0 Z " fill="#C07231" transform="translate(206,73)"/>
<path d="M0 0 C0.99 1.32 1.98 2.64 3 4 C2.01 4.495 2.01 4.495 1 5 C1 5.66 1 6.32 1 7 C1.66 7.33 2.32 7.66 3 8 C2.34 8 1.68 8 1 8 C1 8.66 1 9.32 1 10 C1.99 10.33 2.98 10.66 4 11 C2.68 11.33 1.36 11.66 0 12 C0 11.01 0 10.02 0 9 C-0.66 8.67 -1.32 8.34 -2 8 C-1.125 1.125 -1.125 1.125 0 0 Z " fill="#EF832F" transform="translate(164,67)"/>
<path d="M0 0 C0.66 0 1.32 0 2 0 C2.86963087 2.99706695 3.11763099 5.64956526 3.09765625 8.765625 C3.09443359 9.65507812 3.09121094 10.54453125 3.08789062 11.4609375 C3.07951172 12.38132813 3.07113281 13.30171875 3.0625 14.25 C3.05798828 15.18585938 3.05347656 16.12171875 3.04882812 17.0859375 C3.03706918 19.39069041 3.02063426 21.69531227 3 24 C2.67 24 2.34 24 2 24 C1.98018066 23.44538086 1.96036133 22.89076172 1.93994141 22.31933594 C1.84442349 19.79576307 1.73485433 17.27298776 1.625 14.75 C1.5940625 13.87730469 1.563125 13.00460938 1.53125 12.10546875 C1.49257812 11.26113281 1.45390625 10.41679687 1.4140625 9.546875 C1.3826416 8.77182617 1.3512207 7.99677734 1.31884766 7.19824219 C0.96973494 4.79134258 0.19448896 3.10397705 -1 1 C-0.67 0.67 -0.34 0.34 0 0 Z " fill="#8E5229" transform="translate(219,226)"/>
<path d="M0 0 C0.99 0.33 1.98 0.66 3 1 C3.33 1.99 3.66 2.98 4 4 C3.67 4.66 3.34 5.32 3 6 C3.99 6.33 4.98 6.66 6 7 C6 8.65 6 10.3 6 12 C2.44992282 8.0949151 1.18180084 5.02265357 0 0 Z " fill="#A75F26" transform="translate(200,152)"/>
<path d="M0 0 C1.65 0 3.3 0 5 0 C5.66 0.99 6.32 1.98 7 3 C5.35 3 3.7 3 2 3 C1.67 5.97 1.34 8.94 1 12 C0.67 12 0.34 12 0 12 C0 8.04 0 4.08 0 0 Z " fill="#804E2B" transform="translate(285,126)"/>
<path d="M0 0 C0.185625 0.9590625 0.185625 0.9590625 0.375 1.9375 C0.684375 2.9584375 0.684375 2.9584375 1 4 C1.66 4.33 2.32 4.66 3 5 C2.360625 5.268125 1.72125 5.53625 1.0625 5.8125 C-1.33131686 6.88667752 -1.33131686 6.88667752 -2 10 C-3.39195915 5.82412255 -1.82323219 3.86525224 0 0 Z " fill="#AE6427" transform="translate(281,157)"/>
<path d="M0 0 C0.99 0.99 1.98 1.98 3 3 C-0.0979597 4.54897985 -3.26216552 3.83239539 -6.625 3.5625 C-7.33140625 3.51029297 -8.0378125 3.45808594 -8.765625 3.40429688 C-10.51079987 3.27458793 -12.25545725 3.13795046 -14 3 C-14 2.67 -14 2.34 -14 2 C-9.38 2 -4.76 2 0 2 C0 1.34 0 0.68 0 0 Z " fill="#AF642D" transform="translate(207,182)"/>
<path d="M0 0 C0.33 0.66 0.66 1.32 1 2 C1.99 2 2.98 2 4 2 C4.33 3.32 4.66 4.64 5 6 C3.35 6.33 1.7 6.66 0 7 C0 4.69 0 2.38 0 0 Z " fill="#EE8830" transform="translate(229,49)"/>
<path d="M0 0 C0.66 0 1.32 0 2 0 C3.125 5.75 3.125 5.75 2 8 C1.01 8 0.02 8 -1 8 C-0.67 5.36 -0.34 2.72 0 0 Z " fill="#935E2C" transform="translate(139,206)"/>
<path d="M0 0 C0.66 0.33 1.32 0.66 2 1 C0.515 3.475 0.515 3.475 -1 6 C-2.32 5.67 -3.64 5.34 -5 5 C-3.35 3.35 -1.7 1.7 0 0 Z " fill="#BD7231" transform="translate(212,67)"/>
<path d="M0 0 C1.74271938 2.297221 3.39911152 4.59866729 5 7 C4.67 7.99 4.34 8.98 4 10 C2 9 2 9 0.875 6.6875 C0 4 0 4 0 0 Z " fill="#8E5124" transform="translate(191,161)"/>
<path d="M0 0 C1.42944945 2.35438733 2.08661261 3.48032433 1.625 6.25 C1.41875 6.8275 1.2125 7.405 1 8 C0.34 8 -0.32 8 -1 8 C-1.04241723 5.66705225 -1.04092937 3.33297433 -1 1 C-0.67 0.67 -0.34 0.34 0 0 Z " fill="#956039" transform="translate(242,80)"/>
<path d="M0 0 C0.99 0.33 1.98 0.66 3 1 C1.35 2.65 -0.3 4.3 -2 6 C-2.33 4.68 -2.66 3.36 -3 2 C-2.01 1.34 -1.02 0.68 0 0 Z " fill="#BE6E2A" transform="translate(179,34)"/>
</svg>
